<?xml version="1.0" standalone="no"?><!DOCTYPE svg PUBLIC "-//W3C//DTD SVG 1.1//EN" "http://www.w3.org/Graphics/SVG/1.1/DTD/svg11.dtd"><svg t="1602063721729" class="icon" viewBox="0 0 1024 1024" version="1.1" xmlns="http://www.w3.org/2000/svg" p-id="4605" xmlns:xlink="http://www.w3.org/1999/xlink" width="200" height="200"><defs><style type="text/css"></style></defs><path d="M69.39 873.15c0.19 0 0.38-0.01 0.56-0.01-0.79 0-1.57-0.02-2.36-0.03 0.61 0 1.2 0.04 1.8 0.04z" fill="#FFFFFF" p-id="4606"></path><path d="M941.21 645.6c57.16-206.55-50.15-443.06-268.24-560.79-0.32-0.17-0.64-0.33-0.96-0.5 129.35 70.43 136.93 307.53 16.81 530.04S366.31 960.61 236.46 891.1c0.32 0.17 0.63 0.35 0.95 0.53 249.25 134.55 548.8 63.02 669.08-159.78a414.11 414.11 0 0 0 34.72-86.25z" fill="#ED7A1F" p-id="4607"></path><path d="M688.82 614.34C808.94 391.83 801.36 154.73 672.01 84.3c-0.69-0.37-1.39-0.73-2.09-1.1-129.89-68.24-331.48 55.43-451.27 277.32S106.08 818.8 234.4 889.96c0.69 0.38 1.37 0.77 2.06 1.14 129.85 69.51 332.24-54.25 452.36-276.76z" fill="#FFAD00" p-id="4608"></path><path d="M663.92 596.38c111.56-206.66 109-424.44-5.6-486.86-0.61-0.33-1.23-0.64-1.85-0.97-115.12-60.4-297.89 56.86-409.14 262.94s-109.01 423.21 4.65 486.32c0.61 0.34 1.21 0.68 1.83 1.01 115.07 61.57 298.55-55.78 410.11-262.44z" fill="#FCF2A1" p-id="4609"></path><path d="M454.04 485.61m-23.09 0a23.09 23.09 0 1 0 46.18 0 23.09 23.09 0 1 0-46.18 0Z" fill="#FCF2B3" p-id="4610"></path><path d="M592.88 233.29c3.83-6.99 7.99-13.47 12.1-20.04a42.84 42.84 0 0 0 4.86-10.85c7.86-27.18-12.35-56.9-45.15-66.39-32.8-9.49-65.76 4.86-73.62 32.04a42.487 42.487 0 0 0-1.68 11.77c-0.03 7.74 0.02 15.44-0.47 23.4l-12.9 210.93c-0.81 13.31 8.76 16.08 15.18 4.39l101.68-185.25zM679.88 366.18c6.23-3.09 12.49-5.63 18.76-8.25 3.18-1.33 6.13-3.13 8.79-5.43 18.51-16.05 15.39-49.97-6.97-75.76-22.36-25.8-55.5-33.7-74.01-17.66-2.65 2.3-4.85 4.97-6.62 7.93-3.48 5.83-6.88 11.67-10.83 17.39L504.35 436.26c-6.6 9.58-0.07 17.11 10.35 11.94l165.18-82.02zM341.15 335.96c-3.78-3.66-7.84-6.89-11.86-10.19-2.04-1.67-3.68-3.67-4.84-5.98-8.07-16.14 10.15-41.6 40.69-56.87s61.84-14.55 69.91 1.59c1.16 2.31 1.77 4.82 1.88 7.46 0.22 5.2 0.37 10.39 1.03 15.61l17.47 138.32c1.1 8.73-7.81 13.18-14.13 7.06l-100.15-97zM650.77 513.58c4.98 1.26 9.75 2.98 14.56 4.63 2.44 0.84 4.93 1.17 7.44 0.92 17.47-1.74 28.9-30.69 25.52-64.66s-20.29-60.1-37.76-58.36c-2.5 0.25-4.88 1.06-7.11 2.37-4.39 2.57-8.73 5.2-13.36 7.41l-122.78 58.66c-7.75 3.7-6.76 13.62 1.57 15.72l131.92 33.31zM548.1 675.53c2.81 5.47 6.01 10.56 9.15 15.71 1.59 2.61 2.72 5.44 3.29 8.46 4.01 21.08-19.93 43.33-53.47 49.72s-63.98-5.53-67.99-26.6c-0.57-3.02-0.57-6.06-0.05-9.08 1.03-5.94 2.13-11.85 2.74-17.97l16.16-162.25c1.02-10.24 10.81-12.1 15.52-2.95l74.65 144.96zM288.47 613.92c-4.78 3.97-9.1 8.23-13.5 12.45-2.23 2.14-4.77 3.87-7.63 5.11-19.91 8.64-47.06-9.75-60.65-41.07-13.59-31.32-8.47-63.71 11.44-72.35 2.85-1.24 5.85-1.91 8.94-2.08 6.08-0.32 12.15-0.57 18.32-1.35l163.48-20.56c10.31-1.3 14.28 7.85 6.29 14.5L288.47 613.92zM281.4 488.32c-4.87 0.54-9.63 1.56-14.41 2.52-2.43 0.48-4.82 0.46-7.13-0.14-16.13-4.18-22.26-34.37-13.69-67.41 8.57-33.05 28.6-56.44 44.73-52.26 2.31 0.6 4.41 1.74 6.3 3.34 3.71 3.16 7.37 6.37 11.37 9.2l105.98 75.23c6.69 4.75 4.18 14.4-3.97 15.29L281.4 488.32zM363.36 758.02c-3.03 8.41-5.46 16.68-7.97 24.97a54.267 54.267 0 0 1-5.44 12.23c-16.46 27.34-53.52 35.22-82.76 17.61-29.25-17.61-39.61-54.05-23.15-81.39 2.36-3.92 5.14-7.43 8.27-10.52 6.15-6.1 12.32-12.11 18.34-18.72l159.57-175.41c10.07-11.07 18.61-5.92 13.54 8.15l-80.4 223.08zM568.38 620.53c2.44 3.81 4.45 7.86 6.53 11.88 1.05 2.04 2.47 3.72 4.25 4.95 12.48 8.64 38.35-7.12 57.78-35.19 19.43-28.07 25.06-57.84 12.57-66.47-1.79-1.24-3.85-1.97-6.13-2.24-4.49-0.53-9-0.98-13.42-1.92l-117.28-24.96c-7.4-1.57-13.07 6.62-8.99 12.99l64.69 100.96z" fill="#FFB000" p-id="4611"></path></svg>